<svg width="48" height="48" viewBox="0 0 48 48" xmlns="http://www.w3.org/2000/svg">
  <path fill="#EA4335" d="M24 9.5c3.54 0 6.72 1.22 9.22 3.6l6.9-6.9C35.9 2.38 30.47 0 24 0 14.62 0 6.51 5.38 2.56 13.22l8.06 6.26C12.6 13.38 17.86 9.5 24 9.5z"/>
  <path fill="#4285F4" d="M46.5 24.5c0-1.64-.15-3.22-.42-4.74H24v9.48h12.68c-.55 2.96-2.22 5.48-4.72 7.18l7.42 5.74C43.78 38.24 46.5 31.96 46.5 24.5z"/>
  <path fill="#FBBC05" d="M10.62 28.52c-.5-1.48-.78-3.06-.78-4.52s.28-3.04.78-4.52l-8.06-6.26C.92 16.08 0 19.94 0 24s.92 7.92 2.56 11.78l8.06-6.26z"/>
  <path fill="#34A853" d="M24 48c6.48 0 11.9-2.14 15.86-5.84l-7.42-5.74c-2.06 1.38-4.7 2.18-8.44 2.18-6.14 0-11.4-3.88-13.38-9.48l-8.06 6.26C6.51 42.62 14.62 48 24 48z"/>
</svg>
